<svg width="50" height="35" viewBox="0 0 50 35" fill="none" xmlns="http://www.w3.org/2000/svg">
<path d="M10.0534 27.0816C21.3471 31.653 30.8353 32.7285 41.6295 25.9293C41.5527 26.0446 39.4784 29.1176 34.0236 30.6925C35.176 32.2674 36.751 34.0729 36.751 34.0729C40.2467 34.0729 43.6655 33.0741 46.6232 31.1535C48.9281 29.6169 50.2341 26.9664 49.9652 24.2006C49.5042 19.4757 48.3902 14.8661 46.6617 10.4486C44.4721 4.68661 39.2095 0.691542 33.1017 0.115295C32.5639 0.0768635 32.1798 0.0768637 31.9493 0.0768637L31.3347 0.691428C38.3644 2.68896 41.8601 5.80044 41.9369 5.91573C31.1426 0.460951 18.3893 0.384202 7.5182 5.68526C7.5182 5.68526 10.9754 2.26644 18.6197 0.460952L18.1587 0C17.352 0 16.5837 0.0768631 15.7771 0.192044C10.1303 1.15238 5.40548 5.03215 3.36952 10.3716C1.60246 14.9813 0.450083 19.8214 0.027563 24.7383C-0.202913 27.3504 1.02633 29.9242 3.17747 31.4224C6.02005 33.3046 9.40043 34.3034 12.8193 34.3034C12.8193 34.3034 14.2021 32.4979 15.5851 30.8846C10.3992 29.348 8.28649 26.2749 8.24806 26.1596C8.48594 26.3103 8.74744 26.4631 9.03288 26.6125C9.39188 26.8004 9.73503 26.9546 10.0534 27.0816ZM17.0448 24.1238C14.5479 24.0469 12.5888 21.9342 12.6656 19.3989C12.7425 17.0172 14.6632 15.0966 17.0448 15.0197C19.5417 15.0966 21.5008 17.2093 21.4239 19.7446C21.3087 22.1264 19.4264 24.047 17.0448 24.1238ZM32.7175 24.1238C30.2206 24.0469 28.2615 21.9342 28.3383 19.3989C28.4152 17.0172 30.3359 15.0966 32.7175 15.0197C35.2144 15.0966 37.1735 17.2093 37.0966 19.7446C37.0199 22.1264 35.0991 24.047 32.7175 24.1238Z" fill="url(#paint0_linear_51_117)"/>
<defs>
<linearGradient id="paint0_linear_51_117" x1="8.32773" y1="3.44839" x2="41.4438" y2="36.5645" gradientUnits="userSpaceOnUse">
<stop stop-color="white"/>
<stop offset="1" stop-color="white"/>
</linearGradient>
</defs>
</svg>
