<svg width="50" height="41" viewBox="0 0 50 41" fill="none" xmlns="http://www.w3.org/2000/svg">
<path d="M50 4.8125C48.125 5.625 46.1875 6.1875 44.125 6.4375C46.25 5.1875 47.875 3.1875 48.625 0.75C46.625 1.9375 44.4375 2.75 42.125 3.25C40.25 1.25 37.5625 0 34.625 0C28.9375 0 24.375 4.625 24.375 10.25C24.375 11.0625 24.4375 11.8125 24.625 12.5625C16.125 12.1875 8.625 8.0625 3.5625 1.875C-0.0624996 8.375 4 13.75 6.6875 15.5625C5.0625 15.5625 3.4375 15.0625 2.0625 14.3125C2.0625 19.375 5.625 23.5625 10.25 24.5C9.25 24.8125 7 25 5.625 24.6875C6.9375 28.75 10.75 31.75 15.1875 31.8125C11.6875 34.5625 6.5625 36.75 0 36.0625C4.5625 39 9.9375 40.6875 15.75 40.6875C34.625 40.6875 44.875 25.0625 44.875 11.5625C44.875 11.125 44.875 10.6875 44.8125 10.25C46.9375 8.6875 48.6875 6.875 50 4.8125V4.8125Z" fill="white"/>
</svg>
